<svg width="567" height="567" viewBox="0 0 567 567" fill="none" xmlns="http://www.w3.org/2000/svg">
<path fill-rule="evenodd" clip-rule="evenodd" d="M4.73579e-05 5.17882C0.112834 5.05767 0.227799 4.93852 0.344948 4.82137C29.0495 -23.8831 178.002 78.5305 333.04 233.569C488.079 388.607 590.492 537.56 561.788 566.264C561.671 566.381 561.551 566.496 561.43 566.609L515.907 521.085C516.029 520.973 516.148 520.859 516.265 520.742C540.315 496.692 454.509 371.894 324.612 241.997C194.715 112.1 69.9171 26.294 45.8673 50.3438C45.7502 50.4609 45.6356 50.5805 45.5236 50.7024L4.73579e-05 5.17882ZM56.5623 61.7411C79.4484 38.8551 198.199 120.501 321.8 244.102C445.401 367.702 527.047 486.454 504.161 509.34L487.018 492.196C487.14 492.085 487.26 491.971 487.377 491.854C508.518 470.713 433.287 361.207 319.345 247.265C205.402 133.322 95.8959 58.0914 74.7554 79.2319C74.6383 79.349 74.524 79.4689 74.4128 79.5915L56.5623 61.7411Z" fill="#B87D43"/>
</svg>
