<svg width="567" height="567" viewBox="0 0 567 567" fill="none" xmlns="http://www.w3.org/2000/svg">
<path fill-rule="evenodd" clip-rule="evenodd" d="M5.17876 -1.36772e-05C5.05761 0.112773 4.93846 0.227738 4.82131 0.344887C-23.8832 29.0494 78.5304 178.002 233.569 333.04C388.607 488.079 537.56 590.492 566.264 561.788C566.381 561.671 566.496 561.551 566.609 561.43L521.085 515.907C520.973 516.029 520.859 516.148 520.742 516.265C496.692 540.315 371.894 454.509 241.997 324.612C112.1 194.715 26.294 69.917 50.3437 45.8673C50.4609 45.7501 50.5804 45.6355 50.7024 45.5236L5.17876 -1.36772e-05ZM61.741 56.5623C38.855 79.4483 120.501 198.199 244.102 321.8C367.702 445.401 486.454 527.047 509.34 504.161L492.196 487.017C492.085 487.14 491.971 487.26 491.854 487.377C470.713 508.518 361.207 433.287 247.264 319.345C133.322 205.402 58.0913 95.8959 79.2318 74.7554C79.349 74.6382 79.4689 74.524 79.5915 74.4127L61.741 56.5623Z" fill="#B87D43"/>
</svg>
